<svg version="1.1" xmlns="http://www.w3.org/2000/svg" viewBox="0 0 512 512" preserveAspectRatio="xMidYMid meet">
<path d="M0 0 C1.71772968 -0.00576988 3.43545318 -0.0137168 5.15316391 -0.02363622 C9.84610911 -0.04441378 14.5385427 -0.03423595 19.23148918 -0.01870513 C24.30316421 -0.00735817 29.37475335 -0.0248709 34.44641113 -0.03860474 C44.37102377 -0.060806 54.29544705 -0.0560498 64.22006702 -0.04154153 C72.28796247 -0.03023705 80.35580495 -0.02872363 88.42370605 -0.03416061 C89.57316578 -0.03492678 90.7226255 -0.03569294 91.90691733 -0.03648233 C94.24222217 -0.038081 96.57752698 -0.03970206 98.91283178 -0.04134528 C120.79695525 -0.05559368 142.68097389 -0.03922431 164.56508017 -0.01234345 C183.3315252 0.00999447 202.09781557 0.00611409 220.86425781 -0.01693726 C242.67153086 -0.0437113 264.47871211 -0.05422046 286.2859993 -0.03887594 C288.61258187 -0.03728324 290.93916447 -0.03571138 293.26574707 -0.03416061 C294.41038854 -0.03338924 295.55503002 -0.03261786 296.7343576 -0.03182311 C304.79000924 -0.02751093 312.84560251 -0.03478227 320.90124512 -0.04655838 C330.72207145 -0.06059971 340.54269802 -0.05674899 350.36350155 -0.03015466 C355.37164233 -0.01703857 360.37945039 -0.0118265 365.3875885 -0.02840042 C369.97701879 -0.04335866 374.56580964 -0.03501533 379.15518236 -0.00851266 C380.81047071 -0.00295252 382.46581369 -0.00571239 384.12106657 -0.0178916 C398.09556508 -0.11278361 409.44214923 2.72967525 419.84472656 12.63491821 C429.22650375 22.53076538 431.59531419 34.12640003 431.47964478 47.36050415 C431.48541783 48.81424812 431.49336685 50.26798477 431.503281 51.72170639 C431.52401555 55.68498285 431.51390098 59.6476518 431.49834991 63.61092949 C431.48698493 67.89732708 431.50452449 72.18362397 431.51824951 76.47000122 C431.54043179 84.85456314 431.53570314 93.23890071 431.52118631 101.62347126 C431.50987429 108.44041592 431.50837164 115.2572979 431.51380539 122.07424927 C431.51457155 123.04608587 431.51533772 124.01792247 431.5161271 125.01920867 C431.5177258 126.9937455 431.51934687 128.96828232 431.52099006 130.94281912 C431.53523288 149.43910216 431.51887787 167.93526111 431.49198823 186.4315238 C431.46965079 202.28714447 431.47353133 218.14258209 431.49658203 233.99819946 C431.52336596 252.43026363 431.53385972 270.86221916 431.51852071 289.29430008 C431.51692804 291.26139576 431.51535619 293.22849145 431.51380539 295.19558716 C431.51303401 296.16332557 431.51226263 297.13106399 431.51146788 298.12812781 C431.50715866 304.93343711 431.51442064 311.73867725 431.52620316 318.54397583 C431.54025552 326.84234716 431.53637082 335.14048215 431.50979944 343.43882656 C431.49669796 347.66928546 431.49144578 351.89935092 431.5080452 356.12980652 C431.52303455 360.00871634 431.51461052 363.88687111 431.48815744 367.76571321 C431.48261021 369.1625903 431.48532769 370.55953227 431.49753638 371.95636702 C431.60417001 385.17953995 428.0901235 395.96665489 418.84472656 405.63491821 C410.8167366 412.97338757 401.73525903 416.75366276 390.91767025 416.76913929 C389.86721047 416.77266764 389.86721047 416.77266764 388.79552928 416.77626726 C386.4372333 416.78295052 384.07899251 416.78249924 381.72068787 416.78208923 C380.01740706 416.78538828 378.31412704 416.78911394 376.61084801 416.79323071 C371.92086942 416.80325424 367.23090363 416.80696808 362.54091585 416.80962002 C357.48618995 416.81352204 352.43147419 416.82310047 347.37675476 416.83183289 C335.16469361 416.85160047 322.95263163 416.861664 310.74055848 416.87056068 C304.99043527 416.8749432 299.24031298 416.88031011 293.49019051 416.88554955 C274.37661016 416.90256232 255.26303038 416.91705657 236.14944363 416.92429829 C231.1887404 416.9262082 226.22803719 416.92812853 221.26733398 416.93008423 C220.03436689 416.93056797 218.80139979 416.93105171 217.53107006 416.93155011 C197.55716015 416.93985066 177.58331013 416.96518781 157.60942637 416.99766491 C137.10517041 417.0307327 116.60094488 417.04874681 96.0966621 417.05194253 C84.58327304 417.05410791 73.06997129 417.06286071 61.5566082 417.0884037 C51.75134151 417.11010686 41.94618335 417.11816299 32.14089536 417.10843692 C27.13903681 417.10389111 22.1374022 417.10579496 17.13557434 417.12519836 C12.55276661 417.14282254 7.97034631 417.14183829 3.38753451 417.12630107 C1.73335961 417.12392388 0.07915794 417.12825436 -1.57497603 417.14012972 C-15.73815163 417.23547728 -27.35993171 414.70322565 -38.09277344 404.85757446 C-44.76501908 397.82583283 -49.27092922 388.53119628 -49.29228783 378.80198002 C-49.29736237 377.57725202 -49.30243691 376.35252401 -49.30766523 375.09068304 C-49.30826692 373.72432971 -49.308766 372.35797633 -49.30917358 370.99162292 C-49.31318797 369.54565514 -49.31762615 368.09968848 -49.32245314 366.65372318 C-49.33442767 362.67031542 -49.34006915 358.68691977 -49.34463429 354.70349753 C-49.35058724 350.41083901 -49.36219803 346.118195 -49.3729248 341.82554626 C-49.39745863 331.45216267 -49.41207883 321.07877426 -49.42498487 310.70537058 C-49.42869655 307.77518561 -49.43266981 304.84500111 -49.43673754 301.91481662 C-49.46197738 283.718205 -49.48403027 265.52159264 -49.49646568 247.32496738 C-49.49939539 243.10902974 -49.50235704 238.89309212 -49.50537109 234.67715454 C-49.50611714 233.62930237 -49.5068632 232.5814502 -49.50763185 231.50184494 C-49.52027958 214.53545917 -49.55349388 197.56917835 -49.59517293 180.60284162 C-49.63761639 163.18241683 -49.66116364 145.76204572 -49.66638625 128.34156936 C-49.66979798 118.56129062 -49.68152485 108.78117577 -49.71448898 99.00094795 C-49.74252401 90.66945686 -49.75347376 82.33816323 -49.74229352 74.00662864 C-49.73711538 69.75797927 -49.73993822 65.5097432 -49.76475906 61.26115417 C-49.78732853 57.36527394 -49.7864528 53.47010202 -49.76755519 49.57420873 C-49.76476585 48.17098884 -49.77029409 46.76772013 -49.78536813 45.36457843 C-49.91914712 32.09156772 -46.40793007 21.35214338 -37.15527344 11.63491821 C-26.46720485 1.50207397 -14.05776738 -0.10343583 0 0 Z M-14.15527344 35.63491821 C-18.12537446 41.64739153 -17.54294315 48.1277298 -17.44824219 55.13101196 C-17.44399734 56.31969376 -17.4397525 57.50837555 -17.43537903 58.733078 C-17.41864594 62.51309278 -17.38100234 66.29256577 -17.34277344 70.07241821 C-17.32771972 72.64207195 -17.31403252 75.21173408 -17.30175781 77.78140259 C-17.26875979 84.06611514 -17.21701338 90.35042495 -17.15527344 96.63491821 C-10.55527344 96.63491821 -3.95527344 96.63491821 2.84472656 96.63491821 C12.08379901 69.68369202 12.08379901 69.68369202 21.21972656 42.69741821 C21.49888916 41.87282104 21.77805176 41.04822388 22.06567383 40.19863892 C23.38141156 36.49774624 23.38141156 36.49774624 23.84472656 32.63491821 C19.5580592 32.56029094 15.27174449 32.50609313 10.98461914 32.47012329 C9.52882289 32.45511508 8.07307125 32.43470188 6.61743164 32.40859985 C4.51469867 32.37186146 2.41256772 32.35511262 0.30957031 32.34194946 C-0.95250244 32.32623901 -2.2145752 32.31052856 -3.51489258 32.29434204 C-7.74428363 32.69002312 -10.49779874 33.45562551 -14.15527344 35.63491821 Z M58.84472656 32.63491821 C49.60707237 59.58654736 49.60707237 59.58654736 40.46972656 86.57241821 C40.19056396 87.39701538 39.91140137 88.22161255 39.6237793 89.07119751 C38.30804156 92.77209018 38.30804156 92.77209018 37.84472656 96.63491821 C52.69472656 96.63491821 67.54472656 96.63491821 82.84472656 96.63491821 C92.08238075 69.68328907 92.08238075 69.68328907 101.21972656 42.69741821 C101.49888916 41.87282104 101.77805176 41.04822388 102.06567383 40.19863892 C103.38141156 36.49774624 103.38141156 36.49774624 103.84472656 32.63491821 C88.99472656 32.63491821 74.14472656 32.63491821 58.84472656 32.63491821 Z M138.84472656 32.63491821 C129.60707237 59.58654736 129.60707237 59.58654736 120.46972656 86.57241821 C120.19056396 87.39701538 119.91140137 88.22161255 119.6237793 89.07119751 C118.30804156 92.77209018 118.30804156 92.77209018 117.84472656 96.63491821 C132.69472656 96.63491821 147.54472656 96.63491821 162.84472656 96.63491821 C172.08238075 69.68328907 172.08238075 69.68328907 181.21972656 42.69741821 C181.49888916 41.87282104 181.77805176 41.04822388 182.06567383 40.19863892 C183.38141156 36.49774624 183.38141156 36.49774624 183.84472656 32.63491821 C168.99472656 32.63491821 154.14472656 32.63491821 138.84472656 32.63491821 Z M218.84472656 32.63491821 C209.60707237 59.58654736 209.60707237 59.58654736 200.46972656 86.57241821 C200.19056396 87.39701538 199.91140137 88.22161255 199.6237793 89.07119751 C198.30804156 92.77209018 198.30804156 92.77209018 197.84472656 96.63491821 C212.69472656 96.63491821 227.54472656 96.63491821 242.84472656 96.63491821 C252.08238075 69.68328907 252.08238075 69.68328907 261.21972656 42.69741821 C261.49888916 41.87282104 261.77805176 41.04822388 262.06567383 40.19863892 C263.38141156 36.49774624 263.38141156 36.49774624 263.84472656 32.63491821 C248.99472656 32.63491821 234.14472656 32.63491821 218.84472656 32.63491821 Z M298.84472656 32.63491821 C289.60707237 59.58654736 289.60707237 59.58654736 280.46972656 86.57241821 C280.19056396 87.39701538 279.91140137 88.22161255 279.6237793 89.07119751 C278.30804156 92.77209018 278.30804156 92.77209018 277.84472656 96.63491821 C292.69472656 96.63491821 307.54472656 96.63491821 322.84472656 96.63491821 C332.08238075 69.68328907 332.08238075 69.68328907 341.21972656 42.69741821 C341.49888916 41.87282104 341.77805176 41.04822388 342.06567383 40.19863892 C343.38141156 36.49774624 343.38141156 36.49774624 343.84472656 32.63491821 C328.99472656 32.63491821 314.14472656 32.63491821 298.84472656 32.63491821 Z M378.84472656 32.63491821 C369.60516558 59.58598265 369.60516558 59.58598265 360.46972656 86.57241821 C360.19056396 87.39701538 359.91140137 88.22161255 359.6237793 89.07119751 C358.30804156 92.77209018 358.30804156 92.77209018 357.84472656 96.63491821 C371.37472656 96.63491821 384.90472656 96.63491821 398.84472656 96.63491821 C398.91368644 89.07231841 398.97339641 81.5108146 399.00952148 73.94815063 C399.024585 71.37682391 399.04503977 68.80552279 399.07104492 66.23428345 C399.10753417 62.53312859 399.12447778 58.83231421 399.13769531 55.13101196 C399.15317917 53.98595688 399.16866302 52.84090179 399.18461609 51.66114807 C399.18589476 45.5633202 398.97398998 40.94685771 395.84472656 35.63491821 C391.58847569 32.94218807 388.59463359 32.49872395 383.59863281 32.56851196 C382.7060376 32.57809937 381.81344238 32.58768677 380.89379883 32.5975647 C380.21760498 32.60989136 379.54141113 32.62221802 378.84472656 32.63491821 Z M-17.15527344 128.63491821 C-17.21714844 169.08054321 -17.27902344 209.52616821 -17.34277344 251.19741821 C-17.37008545 263.97661987 -17.39739746 276.75582153 -17.42553711 289.92227173 C-17.43556931 301.35970185 -17.43556931 301.35970185 -17.44160461 312.7971344 C-17.44440388 317.89852684 -17.45541542 322.999848 -17.47200012 328.10121155 C-17.49311499 334.60564996 -17.49875112 341.10999166 -17.49449027 347.61446369 C-17.49538144 350.00326385 -17.50134382 352.3920687 -17.51291883 354.78084099 C-17.52781956 358.00540831 -17.52425129 361.22944603 -17.51603699 364.45402527 C-17.52477498 365.39053893 -17.53351297 366.32705259 -17.54251575 367.29194546 C-17.50472706 372.80353145 -17.12227379 376.90744048 -14.15527344 381.63491821 C-9.2959629 384.18196049 -5.67844108 385.01018264 -0.12901306 385.01244164 C0.54556265 385.01680196 1.22013837 385.02116228 1.91515577 385.02565473 C4.16800962 385.03657396 6.42024667 385.02620505 8.6730957 385.01586914 C10.30757236 385.01932703 11.94204669 385.02409248 13.57651615 385.03005087 C18.06227322 385.0425725 22.54783877 385.03638519 27.03359652 385.02709222 C31.87347491 385.02030685 36.71332029 385.03078042 41.55319214 385.03903198 C51.03226869 385.05237696 60.511274 385.04948816 69.99035335 385.04079406 C77.69369895 385.03402094 85.39702459 385.03309919 93.10037231 385.03636551 C94.19644588 385.03682521 95.29251944 385.03728491 96.42180735 385.03775854 C98.6484085 385.03871771 100.87500964 385.03969035 103.10161078 385.04067631 C123.98406 385.04923244 144.86646971 385.03939256 165.74891245 385.02327521 C183.66986767 385.00987183 201.59076459 385.01219986 219.51171875 385.02603149 C240.319072 385.04208335 261.12639062 385.04840845 281.9337492 385.0391947 C284.15219306 385.03823905 286.37063693 385.03729594 288.58908081 385.03636551 C289.68061858 385.03590268 290.77215634 385.03543986 291.89677101 385.034963 C299.59151831 385.03237193 307.28624365 385.03674664 314.98098755 385.04380417 C324.35736857 385.05221497 333.73367424 385.04994784 343.11004663 385.03396194 C347.89468423 385.0260736 352.67919616 385.02299725 357.46383286 385.03290939 C361.84334212 385.04184508 366.22260916 385.03694199 370.60209644 385.02097674 C372.18679022 385.01762417 373.77150443 385.0193337 375.35618508 385.0266041 C377.51056951 385.03573045 379.66412491 385.02636687 381.81846619 385.01244164 C383.01496764 385.01195458 384.2114691 385.01146752 385.44422817 385.0109657 C389.56391534 384.55538601 392.17519757 383.558328 395.84472656 381.63491821 C399.31672077 376.10280722 399.26518136 370.8515666 399.20549011 364.45402527 C399.20934219 362.94186432 399.20934219 362.94186432 399.21327209 361.39915466 C399.21822817 358.01867647 399.20168294 354.63864652 399.18530273 351.25820923 C399.18438355 348.79432915 399.1847845 346.33044828 399.18639851 343.86656857 C399.18700696 337.93891888 399.17416537 332.01139226 399.15489452 326.08378258 C399.13326385 319.22447339 399.1309086 312.36523237 399.12854004 305.50588989 C399.11279979 287.40304437 399.07091632 269.30022923 399.03222656 251.19741821 C398.97035156 210.75179321 398.90847656 170.30616821 398.84472656 128.63491821 C261.56472656 128.63491821 124.28472656 128.63491821 -17.15527344 128.63491821 Z " fill="#000000" transform="translate(65.1552734375,47.365081787109375)"/>
<path d="M0 0 C5.21410408 2.19906267 9.91985593 5.39187813 14.64453125 8.47314453 C17.84911136 10.55040863 21.10379691 12.5419206 24.35839844 14.53955078 C27.01023757 16.16971392 29.65427654 17.81193537 32.296875 19.45703125 C38.41486283 23.26209521 44.55024266 27.03861866 50.6875 30.8125 C51.77353516 31.48071777 52.85957031 32.14893555 53.97851562 32.83740234 C59.57232996 36.27879989 65.16793645 39.71725152 70.765625 43.15234375 C76.17701943 46.47389363 81.582796 49.80441743 86.98486328 53.14111328 C88.96031877 54.35901758 90.93778959 55.57366041 92.91748047 56.78466797 C95.57519998 58.41065974 98.22583185 60.04762488 100.875 61.6875 C101.6477124 62.15639648 102.4204248 62.62529297 103.21655273 63.10839844 C107.92143772 66.04167444 111.46025091 68.92050183 114 74 C114.48903328 79.35531529 114.70463791 84.30246323 112.625 89.3125 C104.96484915 97.1550354 94.74845616 102.21095193 85.39453125 107.7734375 C80.18636514 110.8767732 75.02447265 114.05042814 69.875 117.25 C68.11590144 118.34247371 66.35678646 119.434921 64.59765625 120.52734375 C63.69289551 121.08921387 62.78813477 121.65108398 61.85595703 122.22998047 C55.59626918 126.10951004 49.32048382 129.96295541 43.04711914 133.8203125 C37.90144377 136.98430275 32.75630741 140.14910925 27.61555481 143.3210907 C25.25042325 144.78040079 22.88478863 146.23889437 20.51913452 147.69735718 C18.85838736 148.72169693 17.19834851 149.74718478 15.53833008 150.77270508 C13.55270604 151.99655179 11.56429948 153.21590113 9.57250977 154.4296875 C8.0154561 155.38014486 6.46449569 156.34082703 4.92553711 157.3203125 C-0.68882698 160.78522986 -5.58420023 160.87447619 -12 160 C-16.64273557 157.8444442 -20.06660406 154.79547889 -22 150 C-22.60035632 145.5232189 -22.54615684 141.07367103 -22.51757812 136.5625 C-22.523003 135.19204974 -22.53012771 133.82160532 -22.53881836 132.45117188 C-22.55701167 128.74035264 -22.55000102 125.02997959 -22.53730202 121.31915283 C-22.52715349 117.43020451 -22.53657283 113.54129362 -22.54284668 109.65234375 C-22.55011772 103.12232628 -22.54054976 96.59248995 -22.52148438 90.0625 C-22.49971654 82.51994815 -22.5067683 74.97782884 -22.52879 67.43528748 C-22.54695959 60.95186163 -22.54949474 54.46856577 -22.53903532 47.98512268 C-22.53280891 44.11614902 -22.53194111 40.24737847 -22.54518127 36.37841797 C-22.55676204 32.74043598 -22.54867426 29.10301 -22.52560425 25.46508789 C-22.51781847 23.49821735 -22.52965409 21.53129961 -22.54211426 19.56445312 C-22.43924863 8.82528134 -22.43924863 8.82528134 -18 4 C-12.69790262 -1.03699251 -6.9156703 -1.48633003 0 0 Z M10 46 C10 68.44 10 90.88 10 114 C13.65063515 112.53974594 16.4960566 111.21558194 19.78125 109.19921875 C20.69592041 108.64024902 21.61059082 108.0812793 22.55297852 107.50537109 C24.01175415 106.6055249 24.01175415 106.6055249 25.5 105.6875 C27.01194946 104.7605835 27.01194946 104.7605835 28.55444336 103.81494141 C31.70566587 101.88098523 34.85315411 99.94106796 38 98 C39.00047363 97.38431152 40.00094727 96.76862305 41.03173828 96.13427734 C43.87664418 94.38331168 46.72006814 92.62997866 49.5625 90.875 C50.42359375 90.34350342 51.2846875 89.81200684 52.171875 89.2644043 C56.50073737 86.58252265 60.78399615 83.85622303 65 81 C63.67950348 77.03851043 62.07557124 76.55809456 58.515625 74.4453125 C57.95192703 74.10708969 57.38822906 73.76886688 56.80744934 73.4203949 C54.95965677 72.31385172 53.10495316 71.21948923 51.25 70.125 C49.33414575 68.98230511 47.42004498 67.83671104 45.5059967 66.69099426 C44.21457404 65.91829914 42.92252674 65.14664706 41.62986755 64.37602234 C34.85222533 60.33124579 28.16043809 56.15071232 21.48730469 51.93603516 C20.6987207 51.44280762 19.91013672 50.94958008 19.09765625 50.44140625 C18.42226807 50.01545166 17.74687988 49.58949707 17.05102539 49.15063477 C14.58115948 47.70643537 14.58115948 47.70643537 10 46 Z " fill="#000000" transform="translate(210,224)"/>
</svg>
